PathFileType	4	(X/Y/Z)	./resultDataOpenSim/trcMotMarkerGrf/sub09/qtm-13-04.trc
DataRate	CameraRate	NumFrames	NumMarkers	Units	OrigDataRate	OrigDataStartFrame	OrigNumFrames
250.000000	250.000000	9	24	m	250.000000	257	512
Frame#	Time	L.Toe.Tip			R.Toe.Tip			L.Ankle.Lat			R.Ankle.Lat			L.Ankle.Med			R.Ankle.Med			L.Heel			R.Heel			L.Knee.Lat			R.Knee.Lat			L.Knee.Med			R.Knee.Med			L.Thigh.Upper			R.Thigh.Upper			L.ASIS			R.ASIS			V.Sacral			L.Acromium			R.Acromium			C7			L.Elbow			R.Elbow			L.Wrist.Lat			R.Wrist.Lat
		X1	Y1	Z1	X2	Y2	Z2	X3	Y3	Z3	X4	Y4	Z4	X5	Y5	Z5	X6	Y6	Z6	X7	Y7	Z7	X8	Y8	Z8	X9	Y9	Z9	X10	Y10	Z10	X11	Y11	Z11	X12	Y12	Z12	X13	Y13	Z13	X14	Y14	Z14	X15	Y15	Z15	X16	Y16	Z16	X17	Y17	Z17	X18	Y18	Z18	X19	Y19	Z19	X20	Y20	Z20	X21	Y21	Z21	X22	Y22	Z22	X23	Y23	Z23	X24	Y24	Z24

257	1.024	0.14053895	-0.010812687	-0.02852784	0.75591901	0.15525447	0.080626201	-0.0052013503	0.044379044	-0.067240287	0.60838591	0.12784558	0.097746767	0.023677901	0.064033507	0.024935979	0.62233291	0.173619	0.007963729	-0.077638065	0.019122493	-0.016384108	0.55876963	0.085244548	0.041848488	0.11929733	0.44176997	-0.13520916	0.55799743	0.58157416	0.14342443	0.12441906	0.44419675	-0.008631073	0.55939322	0.56282201	0.019257491	0.22626668	0.84743668	-0.18787583	0.27402246	0.86746892	0.18405142	0.3344771	0.92233486	-0.14049788	0.34690277	0.94349777	0.099924312	0.17713675	0.99613933	-0.016636107	0.37128777	1.3795017	-0.18444952	0.33404481	1.3999487	0.14319505	0.2895908	1.442796	-0.028097656	0.22814392	1.0338683	-0.26721099	0.14957987	1.1001281	0.23516924	0.44712824	0.87209703	-0.25747549	0.21135399	0.84562843	0.30725583
258	1.028	0.14057117	-0.010851919	-0.028573015	0.77312503	0.15609626	0.079119166	-0.0048111707	0.044895533	-0.067425693	0.62523414	0.12590261	0.095946224	0.024082913	0.064478198	0.024765112	0.63874677	0.17290595	0.0068001385	-0.077450893	0.020130894	-0.016683717	0.5770646	0.083468093	0.040187621	0.12216751	0.4415531	-0.13538543	0.56291577	0.57914459	0.14312329	0.12737762	0.44400416	-0.008970182	0.56474042	0.56045505	0.01918066	0.23102043	0.84673341	-0.18738654	0.28042988	0.86613544	0.18427415	0.33967837	0.92104297	-0.1408205	0.353299	0.94193501	0.099563364	0.18303738	0.99501222	-0.01604072	0.377504	1.3782946	-0.18443615	0.34061662	1.3985618	0.14330824	0.29617604	1.4415352	-0.028151671	0.234312	1.0324903	-0.2670075	0.15587449	1.099058	0.23552425	0.45395077	0.87154776	-0.2568841	0.21719033	0.84456677	0.30793648
259	1.032	0.14060565	-0.010886215	-0.028626608	0.79003805	0.15691262	0.077386325	-0.0044099263	0.045461188	-0.067639897	0.64168152	0.12449813	0.094521859	0.02449771	0.064952363	0.024556362	0.6547943	0.17237402	0.0056867572	-0.077247085	0.021186524	-0.017025217	0.59490973	0.081994265	0.038680264	0.12512275	0.44133854	-0.13557082	0.56785767	0.5765695	0.14286424	0.13039792	0.44377169	-0.0092869601	0.56998991	0.55798136	0.019066083	0.23581624	0.84601362	-0.18690708	0.28689091	0.86477736	0.18447479	0.34492587	0.91978295	-0.14114373	0.35971472	0.94036124	0.099173784	0.18896086	0.99385956	-0.015436074	0.38374807	1.3770736	-0.18441782	0.34723336	1.3971541	0.14342762	0.30273656	1.4402507	-0.028165001	0.24050237	1.031111	-0.26680346	0.16218472	1.0979735	0.23588906	0.46073679	0.87094071	-0.25629575	0.22307247	0.84349131	0.30861295
260	1.036	0.14064032	-0.010916574	-0.028692279	0.80659269	0.15776128	0.075496198	-0.0039970444	0.046077444	-0.06788509	0.65776356	0.12370015	0.093492683	0.02493618	0.06546764	0.024301882	0.67043939	0.1720041	0.0046364767	-0.077022589	0.022295843	-0.01739209	0.61224909	0.080782206	0.037335883	0.12814274	0.44113646	-0.13576662	0.57287074	0.57385653	0.14266907	0.13345607	0.44355016	-0.0096110173	0.57515331	0.55540007	0.018888985	0.24067263	0.84526984	-0.18643991	0.29339847	0.86339129	0.18465187	0.35021532	0.9185582	-0.14146607	0.36614836	0.93878852	0.098762211	0.1949131	0.99267746	-0.014819754	0.39001414	1.3758397	-0.18439774	0.35389843	1.3957281	0.14355506	0.30921499	1.4389579	-0.02802497	0.24671888	1.0297308	-0.26659236	0.16851526	1.0968776	0.23626328	0.46748479	0.870277	-0.25571157	0.22899237	0.8424056	0.30928599
261	1.04	0.14067357	-0.010944221	-0.028773449	0.82270907	0.15871298	0.073532939	-0.0035667567	0.046744335	-0.068168482	0.67363386	0.12338904	0.092734504	0.025407488	0.066034255	0.02400422	0.68564451	0.17177193	0.0036520198	-0.076773545	0.023466362	-0.017772303	0.6290812	0.079778185	0.036224397	0.13120229	0.44096343	-0.13597595	0.57796268	0.57101568	0.14251006	0.13651153	0.4433648	-0.0099169454	0.58025347	0.5527076	0.018620767	0.24560745	0.84450469	-0.18598547	0.29994724	0.86196749	0.18480801	0.3555473	0.91736673	-0.14178943	0.37259923	0.9372246	0.09834345	0.20090285	0.99146584	-0.01417528	0.39630067	1.3745948	-0.18437434	0.36061083	1.3942869	0.14368956	0.31563522	1.4376699	-0.027724076	0.25295584	1.0283484	-0.26637325	0.17487214	1.0957738	0.23664567	0.4741983	0.86955882	-0.25513133	0.23495199	0.84131058	0.309959
262	1.044	0.14070584	-0.010969193	-0.028870551	0.8383137	0.15981177	0.071561443	-0.0031167676	0.047470087	-0.06849215	0.68939424	0.12333985	0.092032321	0.025907337	0.066655793	0.023682271	0.70037677	0.17164453	0.0027264111	-0.076496903	0.02470213	-0.018162112	0.64539325	0.078919513	0.035335876	0.13428286	0.44083461	-0.13619678	0.58316531	0.56809642	0.14236602	0.13950215	0.44322029	-0.010135057	0.58533333	0.54990281	0.018250276	0.25063172	0.84372522	-0.18554062	0.30653667	0.8605052	0.18495019	0.36093187	0.91620356	-0.142112	0.37906849	0.93567409	0.097932102	0.20695847	0.9902242	-0.013463015	0.40260884	1.3733421	-0.18434328	0.36736655	1.3928353	0.14382685	0.32206575	1.4363918	-0.027355832	0.25920256	1.0269653	-0.26615683	0.18125916	1.0946643	0.23703575	0.48088188	0.86878952	-0.25455397	0.2409592	0.840205	0.31063278
263	1.048	0.14074236	-0.010989415	-0.028977246	0.85334641	0.16107499	0.06962288	-0.002645503	0.048260918	-0.068845595	0.70490885	0.12338944	0.09128012	0.026418742	0.067333672	0.023364237	0.71459897	0.17158339	0.0018494821	-0.076191348	0.026003266	-0.018567703	0.66112833	0.07814772	0.034573213	0.13738249	0.44075839	-0.13642229	0.58848883	0.56516409	0.1422429	0.1424254	0.44311279	-0.010245358	0.59044156	0.54699784	0.017802219	0.25576186	0.84293184	-0.1851066	0.31316574	0.85901301	0.1850849	0.36638302	0.91506781	-0.14242362	0.38556048	0.93414191	0.097540219	0.21311896	0.98894818	-0.012642653	0.40894223	1.3720858	-0.18430297	0.3741638	1.3913777	0.14396545	0.32855498	1.4351192	-0.027026099	0.26545395	1.0255873	-0.26595869	0.18767604	1.0935489	0.23743343	0.48753705	0.86797273	-0.25397651	0.24701803	0.83909052	0.3113025
264	1.052	0.14079615	-0.011001633	-0.029075962	0.86776598	0.16250079	0.067739427	-0.0021453009	0.049112196	-0.069211246	0.71982147	0.12348653	0.090539934	0.026934851	0.068066641	0.023061779	0.72826518	0.17154895	0.0010133499	-0.075857149	0.02736712	-0.018998427	0.67624747	0.077414329	0.033872294	0.140517	0.44073293	-0.13664776	0.59385637	0.56225809	0.14214551	0.14539691	0.44303738	-0.010331809	0.59561124	0.54402604	0.017313254	0.26102506	0.84212036	-0.18468812	0.31983698	0.85750118	0.1852202	0.37191391	0.91396338	-0.14270915	0.39208241	0.93263577	0.097180756	0.21938844	0.98763494	-0.011727932	0.41530664	1.3708287	-0.18425234	0.38100237	1.3899185	0.14410963	0.33511404	1.4338412	-0.026774733	0.27171305	1.024222	-0.26578432	0.19412142	1.0924275	0.23783832	0.49416091	0.86711233	-0.25339556	0.25312462	0.83797291	0.31196173
265	1.056	0.14088284	-0.01100462	-0.029142729	0.88155006	0.16406372	0.06591544	-0.0016062944	0.050016737	-0.069577994	0.73387153	0.12358273	0.089874313	0.027470266	0.06884169	0.022760799	0.74132925	0.17150558	0.0002178507	-0.075495775	0.028789388	-0.019458151	0.69074783	0.076679403	0.03322936	0.14371458	0.4407469	-0.13687407	0.59917747	0.55939339	0.14204288	0.14855684	0.44299032	-0.010498253	0.6008567	0.54103461	0.016791365	0.2664388	0.84128932	-0.18428308	0.32656164	0.8559781	0.18536451	0.37753501	0.91289175	-0.1429557	0.39864157	0.93116443	0.096866556	0.22571356	0.98628909	-0.010803353	0.42170469	1.3695711	-0.18418998	0.38788005	1.3884638	0.14426185	0.34173291	1.4325537	-0.02657968	0.27798512	1.0228757	-0.26562266	0.20059335	1.0913119	0.23825496	0.50074899	0.86621314	-0.25281076	0.25927302	0.83685738	0.3126069
